<mxfile host="app.diagrams.net" agent="Mozilla/5.0 (Windows NT 10.0; Win64; x64) AppleWebKit/537.36 (KHTML, like Gecko) Chrome/130.0.0.0 Safari/537.36" version="24.7.6">
  <diagram name="Page-1" id="pg8aB5UDVl3D2OFlfBML">
    <mxGraphModel dx="1909" dy="1013" grid="1" gridSize="10" guides="1" tooltips="1" connect="1" arrows="1" fold="1" page="1" pageScale="1" pageWidth="1169" pageHeight="827" math="0" shadow="0">
      <root>
        <mxCell id="0" />
        <mxCell id="1" parent="0" />
        <mxCell id="U2jJi5pHd13_bOi9mq0v-5" value="" style="shape=image;verticalLabelPosition=bottom;labelBackgroundColor=default;verticalAlign=top;aspect=fixed;imageAspect=0;image=data:image/png,iVBORw0KGgoAAAANSUhEUgAAAOMAAADkCAYAAABqi5P0AAAAAXNSR0IArs4c6QAAAARnQU1BAACxjwv8YQUAAAAJcEhZcwAAEnQAABJ0Ad5mH3gAADU6SURBVHhe7Z1pkF3Hdd97MPu+L5jBDhIEQRIgJVGStVhWbFpLTNuSIieplJOUK9+SfEjKcSWRqqxyVBWXXIm/ZfviJJW4KqlSYmuJZFuyFkvWRlEgQZAg1gEGs29v5s2+AOlfv9tAz5279H3vzcy9b/rHepy5b+57uNu/+/Q5p09XiS9876FwOBwHzhHvp8PhOGCcGB2OlODE6HCkBCdGhyMlODE6HCnBidHhSAlOjA5HSnBidDhSghOjw5ESnBgdjpTgxOhwpAQnRocjJTgxOhwpwYnR4UgJTowOR0pwYnQ4UoITo8OREpwYHY6U4MTocKQEJ0aHIyU4MTocKcGJ0eFICU6MDkdKcGJ0OFKCE6PDkRKcGB2OlODE6HCkBLfWRoaoPlIlaquPiJojvKq8d3ezuf1ArG9ti60H7tZmCSfGlNFcXyNa6mtFq3zxU4mvuiDCI1XhAgwCMSLK9U354ufWA7G0vinya5tq25EunBgPkLqaI6KzqV60N9Y9EmBCvRUNvacW5tL6llhY3XACPWCcGPcRzMv2xlolPkTY2lDr/SUdLG9sibnldZGTwlyULwTr2D+cGPeY+ppq0d1cL3paGpQIGfdlAR6K3Mq67DE3xczSmupFHXuLE+MewNiup6VeirBBiTArAoxiXgpzdmldzCyviTU5BnWUHyfGMkLP19faoETYUFvtvVtZPHj48JEoJxdXvXcd5cCJsQz0yt6vv61R9YKHCZw/4wsrYky+HKXjxFgkOGMQIK+2lDli9hsnyvLgxFgExzubxTH5wjnjeIwTZWk4MSYAr+iJrhY1Ntxr1tc3xMrKmliWL37yerD9QGw/ePD4p3xte+GHapICZG9dLV+1crzK2LXqSJWoq68XtfV1hZ8NdaK2bu+PfW5lXYzMLYn5lQ3vHYcNTowW4Iw50dkiBjuavHfKC8JbWFgSC4vLYlG+EN72dmkey6NtwV7cqqoqJc7t6lpR39wo2ttaRLP8uRfcn18W96QoN1y80gonxhiGOpplb1hek3R1dV3kcnklvMX8klheXvP+Uj5a62tUgkEQW9sPxWR+TcUSoV6Kc7C3XQqzWTQ0N4mGpvKJc3VzSwpyWZmvjmicGEOgNzzT0yrNvfI8mFtb22JmNidmZ3Ly54J4+HDvL3t7Q61obajxtgpsSiHOSfMxKLumu6lONNZVi8aWZtHS3iqa29tETe3OzxcLiQO3Z/JiZWPLe8fhx4kxAASIEMsRK1QClOKbkSLclL3EflNbXaV6dRIREOBqTMC+vuaIqJPjT9iWj0dbR5vo6elQr1Ih9/XWdF5M5V18MggnRgMe2NNShHhLSwHHyvj4rBifmBFLS5VhnrW0NIqB/h4xMNAtako02UfkWPL2zKK0Drw3HAonRg9ihWd720rylG5tbT0SIU6YSqRBji/7pSAH+rtFY2O9925ySEa/Pb0oFtdczqvGiVGCWfpkX5uaM1gMmJ9jY9NKhOtrG2rcVXuk8F2YhisRpiEez0bZ0zBnkbnAeB6jcj85xgZpSvK5beYryv03tsK9lZidmKlMzcJxs7G9rcaNpVJdXS0Gj3aLowM9oqlIbyzHf1MK0jl3Chx6MZ7salGmabGMj8+IkZFJsbK6ph78lvoa0egba65sbKvpSUzuNWmSom2pq1HzGjXSwhXLUtzL61u7ZurjIeX7zZAFwsIpkpf7m7CP3t+kMMF4K3bsGAfnyLE31FeLzt4e0dHXreKcxUD4A+fOYedQi/FcX3vRscPl/LIYvjcupmcWvHdICqjbJUQNgsSLqaFsBkkEOFiCWFzb2mHC8b1dTXWhk4/nljd29MCY3W0+T6oGkc/K/Yudr0jvjOeV3lxT11AvOvt6RGtnu/dOMqaX1sTVsXlv63BSXFNWATw72FmUELc2N8X06IQYv31XrEpBahAL5mYYeGbpOTVNslcJEyJgipplNprk58OECKbnl+9l/zBoCPj+YuGzphBhY21dTN4bFePDI2J1ObnZSbL9iyd7va3DyaEU43NDXUXNsFheyIvRm3fFwsyc2tbjQlCmY4RY+HO1oaYoIQKmqym+uDCLDkdAlfzPLxY/xY6PgST5MArXaFiOoae8d+yh/s/PPzngbR0+Dp0Yz/W3K/MwKfOTM6rV39x4bGo+fJTDIn+3MPbNXaz2N/aJ23/Hd3s/oyglrGCedxjDt0fFtbeHlYc5CVgD7z3d520dLg6VGE91t4rB9mSm6dbmlpi4e1/MTuxu6c2cyy2Stn0OFxM8maZDJsoDCmubD3Y89CsxCQNmMSkmAPudRX5KyReN88ZybhzDxMSseO31m2LJMOdtwAq4KK2Xw8ahESNCPNXd4m3ZsZjLizE5NlzKLXrvPAaHDC8ND39UCIO/mQ4TPKZRHk3EZ/Zey/LfChMBjYD5XWzjvQ3r/RD6WgmV4Pi3wo6df5Nj1Q1PXgrxjSs3xfx0wbS3pUtaL0/0tXlbh4Nq8dJvfc77vWIpRoiTk3PiytVbKobITAddNJgHvRCq2Bbbvqedv/EMYmrp8AMCQhjs7xcHvYd4WNhXO2sQdX5ta4fQgX156e/2dhercr/F9d1hE/5dvt48FrY5FsIg/rBJEvik/jxjT30s/Jt8N/+GCVbDwnxejWNb2uzvQ1tDnTr+wzIVq+JDG0elWfqUHCcmgdjh29fvelsF5wzOFx46nsG4kADC1eJCQHEPPg80emG3B/J/fpH7wVmjj4UHPWp3jkI5g+R/7FuKCIPg2uDIwqTGPI36do7lxPF+cfrMscIblgzPLslX5cchK1qM1CZ9bqjzkTBsGB2dEjdujnhbjr2gr69TXHj6jLdlx9uTCxWfqVOxY0acAKS4JRHiddkbOiHuPVNT8+Inr7zpbdlRrBc8S1Rsz0gsMcnNu/zadTXhNwid34kpqceAUZAAoFLc5JXFa1lq6lkpkA7X4Dv2ME8qDRcpdDo9D7NzSe4f5iWmwSPRgZgpu+DR5VzDTGGVGCFfmPGY4uz77p973vtrPHz/ldH5ii2oXJFixAt3rMN+GtTorWExMb2wK78TOpvqRHPdzoA7YQpS2/wPNeMnUtbMTBvAezm7sh45tis3GAQ9sjHyHwvMr2zualAYh5LOp509GnJlOXa/gwiRk5vqTy5AYDig/NeGqgMI3c+GNM4uXDrvbcWzLIV4+f5c7Lg9i1ScmTrQ1pRIiCp9a2lFPSz0ICbMlPcLEXgAEZ2frsbdQoSG2iPqb/tJR0PwsUBnU+0j77CG9/xCBJJtOnzHzvd2yGsTlOVDz+dPTue9ICFCnXggrr1xw9uKp7m+VpwfKC7/Ne1UlBgba2vE6R571/nUyJhK39Iwi0LDY+Z/qEx4EJtlz6DhAa2XogtDTasqIQUtCfSKzfXR6XPkxmo49qhjwww1GypVD2i3Dh+hzHTj+8zrFMTDjXVx9c3b3lY8VGynNlGlUVFiRIi2haNmxyfF4lzO2ypgPpBm/CwM84GzEVpcPmq58Pd6QZj7ROWaasxe0MyxDYI/m7vEHQ///vT0vLh56773TjzEjc0GpRKoGDEOdTRZF49anJ0X81Oz3tZjVBDew2Z4lzg3dZ/GjDbDKfNczd/DIP6psdrf2CUubqodRPfvT6oYrw00fkkTOdJORYiRbH+ybGxYX10LzDMFc4Y9DgIcNVGsGU4Nm4VG4/JFywViwWkUhenh5bxx1ISBllaN84vLa+XfNsUb5002/377zqhYsyxZQuNLUkelUBFiPC2FaGMmwvTYpNgOEA5ufL83dTHChU4amile3PlB3lgNE4VtepRyscC/F6IZZvqbDQNHlVsLTznLrW7u6NWVxzTkXGnA+H6zN2Q7rHHgupuTqEk/vHUnmbkaN70sK2Q+N5WFZyidYcPw8Ji4NzqtxjyPxCufGfJG51Z3P4zE5RAZY0MzeYCHa14+oH4KD3jVo3Q1oIPgYYsSahJ48FjxuJAHayjEB39DNBw3YzKOR+eOUkXAD3/b2HqoPKp6jMf5IMSgno39+Tf4fv7jeLAUiEsGJaGTKM9+fDefoaEgvMJ195/Fysq6PN4q0dERb+1wbhzz7PK69052yXSckQfsHcd7rJbjnp1bEFeu3PS2Cp9FlLa5mlpg+iGMgke5lrCC3C3OpIsDD+8xaYrh2VUBecMCYGYHMT0EcGduOXJMyjHt1Y3WDZVtz297LM8994To7rILY7w6MquWPs8ymTZTiSfaCJF1K+7cGfO2CvDcJEmaRlT0FDYPHHtgfpUqxBOdTeLF413ipPxJzRlTiNBUWyP6WxvEWWmqvUvuR5A/DPszTQ7XxFaIYLsn98x2zZGhChg7ZlaMmGssy2bD3bsTmSomTG/4zmOd4qne1l0CDIMg/AtDHeKc/EylwD3j3tnAcIVsqSyTWTHSK9rEFOdzeXFvxO6GlhPGRnHxtSAIwD93tD0ww8cGetGn+4uflJv0uIs9T1tGRyfFQkjOsJ/BjCcCZFKMLfW11r3ivbvj3m/7A2M7lmMbMF5xGSgaHBHPDrSLNnl+pXCsvVGc6U72YFJNDpNXH/OgWpE5/LgZv7LPo/OUnzUzmEqFZPXelnp1LZdm7aoEUGEuyzM7MilGTBIbRu9Pqp5xv6BWaUfjzhxPeg3yPqNS6zQIMaxHxAs6PL8sXrk/L/7i+qT42WhO3MuthI6/GEcOSVHagIi6mut2ZAiRlKPPxw95vLzMxB2dr2vb8ESBad5rJLmvLi2L+Sm7ZIAsxx0zJ0ZCEv0WmTYE93PTdjewHCDAqJ6EpHPP6RjI6a5m0Sd7giDGFlfFT6UIb0w/Xg14ZnldvD2VF5elKMMcRRekucq/G0fUPjQi5riV6x+W9A1R18AWGgH/taI6H/c0DkpwUq4ji2ROjPSKer5dFKS81e/hWMaPf8aHHx6usH14uE+HmJWELK5OLIqwKUOIEkGGFcPCIxsFQjN78iB0DwVxxY/5LnP/pKjrFJBwz8pe/lziMGwtp7RR/FU7IGwuNNWt9Y0zg/V7ic0/E7YPQgxKvs6tbYqbM0veVjhk27wpBRtksjKWY+wVhs31MfchGB+HzT5hkBgQRl7eU7NubRg8I1nMyslU0J9cxAtH4xftnBmblCbqrIojTizGmzbvPtElfu+jz1jdQEzFf/zFV3eZhvR6PS114gsvX1QmZxB8xh+Oo5dvDlgdmNJOi6Sheds2cAxMX/JDISrGnF99c1z8wbfe9t4tQE+Gk0TzyeeGxN954cSOhsNMdECYQbNPZpY3xL/66usqY4drniSG64fjCeutu/p7RddA/DIAd2by4u5cfEOWJjIlRptSGrScI9fviAfb22JBPhg2aWj/5mPPis++9LS3Fc/53/+6Gq/5ISTx+r/4ZW8rfcyvboiuz/ypt/UYHC84ceid3/idj1g5m4L4/W9eU2I3F/gpBsx2HERB1NTVimNPnoldsJWVuV65O5MoGeGgyYyZipfOxm2NeYoQyR+1zQdNalWFxdXSvvCnuTaICU4hErnfd7q7aCHCR84PKMGXCvdteT1gDCx1NZVbVpXK42CuI6GOLJEZMXZbXFhmY0yMz4jppXVlLu03pZhm+0FYo8NR4wj68BOlrXFBBhBj1HKAqGeWNlSjSkFnktvH82vq94lJOy95Z8ZijpkRY0+EE0JDMvj04uq+zRvMGnGOlV+5MOj9Vjx/61KyAsVRMPuDRhWzF6tDT0JeWloVMzPxntWupvpYT3GayIQYWWffJnY0N797TQzHY3gs+1uDG7X3nuze4cgplk88N+T9trfYiBHnGIWss0ImxGizliJxqLWlFeVNtBkDsh/j0Lj4YKVBClsQ5RLRz5/pVSUfw+B6c92DvL5+uI/6Pvljl9NSjOsW9VNZQCcrZEKMNo4bVhFuqSks5c0DF5aWRQ4mPQD7kaZGOCJs30qDh/tsT4uajuXnb79w3PutNDALf+3Z3eYuYmI8yfXmunP9uQ9hoqQmK/dR3ydipWQo6UnhTK2yNVWzYqimXoykRtlUAVvJP44p8dBxA/03mgeCHEz/OKJcRduC8jjTBg8zgjQhJ5bZHuXi05d2ChvvM3Mt/XVWuQ+IzZ9RRYPZIe+f38JhPxoS/f7M7HzhlwiIHWfFVE29GFst8wxXAhbk9OdQtpY4GyIK0spKSQPbD/BMQp8cN5rWwKculXec94tP9u249oRL/MIy2XWfInJlETS9JszP59X6j3FkZZ5j6oP+Tw90xKbArS6vqHXkgxhdWH2U9cIshqCH4nc+/JT4px980tuK59kv/JnKFzXhgTvX2yJ++s9f8t6J55WRefH1a4W5lrdnl1T5DJPZ5Y1HQWt6hCMRnkE8jTrYTvAeCwBOdjY/SgSfWlpXIQz4wfCsGJ4rPMiXf/slcWkwPrMpCX/vf/xI/PGr99TvTM2KqhlLPRyS4YEMn8H2aB8BMVF9HufPnRADR6MzcnIr62pJgLSTfjPVwvQ7spGOYkRJ82ARw5uTi+KHd2fVtCgEYr6+c2tafPtm4fXXvr/5X/xd78vn9Pt/eWNS/Ru89AMMeqoW5mm5hQhB48a9wKaCA0sCZIFUi5GZ/JTsj6Oz+mFgorVavNPo9/cy/si/VSymSDSUPNRxNYg7dvPfJ/lAf3ZW9pYbAdXatGm4V6GIl58ZfDT1Ku7arBt1brAEyIWNwqxROydN1TgYJ2eh+niqxWjVK8qb1161LY517DZl/elw+T1cSowk8LhivX7QC6IJEqP/2PV4Lwz//rocI9+PIE14D6HgHPvkxfIF6U1wnv3SuX71O9fdbBT9+M8tH5FWSENjmvMrq+tiTb7i4FzTTqrFaONwqZIm6rYcdBTGJYXT4caz7JlfHPQujKsYo5gginKQNAWPFn4yv7ar1yPB3b9kG2JnDGn2llAQ88au+Y58nu8BPqdhP51Di1f1g2d61O82fOtmcCX2MH79uYKpioA4Bn+FdtVQyPf958/cTK6lX8D0sOzvfz+3ED87IwsTjlMtRivTYm1VCW9dDuqbpFk7J2/W+OLarodZQ27j+OKquqk5+TkeZL/jZL/goboxs1TIpZXHQkMxtrC2q5fT0LhwburY5cPKT7bNyuYmfM+4/L5bs0tqWtPC6oYSqBb0JxKO6/7JF3/2yNFiwyefe9zrkto2IRserrd57GHWBL0lf+d+cm24RjiggiZZ54yVxMJocT1jaTRaiLHKm2xKz9HRVCfHH/G1TfkrD4Gqfh3yMOwHLJzDw0bPwLHQUNhM+VHHLh/WsAfZhDL7fO/d+eVdYzFmWdiCCHEC/cmVnfVnoyCG+KGzOz2dXG/bY+da0EtybaLGzPl8vBPHjRlLhCK9cVRtPe5FCBYPxYRB0gQPZFAp/L0A68GEmOg7jnV6W/H8n9dH1c8vXbUXI+xHrmqrRUYjiQc25VoOktQeHZkTcZGCh0qIO1v7QWKJ3u9h4Lwg9oZ7n4F9RPgukKQhjDAQI15gPJscCxk8e5Ury5Qkszf6uVPdieqdfuXNQsnLb92YUj2tLb/xfPFpdjQYXBOuDdcobAbGYFuDqNqOH2rYNO4HSWrFaGNWrAVUC+OmHY3oHREhGSitDTXy36iWYiysTZ8EzK+gbJskDzdgNlJzlFntHAuJA4Xczb1xNpiL+7z/tL3jBlMREQLDga9ds69FS/4p1dGT0tlYp/JRuSZcG66Rqs0qG2kT7gWpdrUP4huItJuqqRWjTXxxfnEl0MwLmybETUWEpULPSGvt7yCT5qbS0gd1ss2qkSi/w0GXeaTRYMqULd+5Oa1EqPny1WSFoT95MZmpSoMatAw614rMIrPRI6uqVe5b+zB8TKlxYiwSG/t+aXlNpbv5oaUMqgVKa0tOJn9DmJirQWKwASGZ+Z2Ylzq0Ug5KKX8RBuNGjPp3Hu9MlEf7lzcnd+xPYSsLP9Mjko4b485dX3d6S2Z21MlrX/PAwkx1YiyOoIwaPyvSTJ3M7w74EnB+fqhDFYhibPQLT/SKjzw1oH6+KB9EykO8+3iXeJ/824fO9EaatVGYNWX8MxJKhcY/qdkbB1YE4ZMPJDBR4c/fntxxriQpfH/YvkA0a3881We3IA9WR9jYUKMbPZx1et8aCzO13Peo3KRWjFFJ0ZptaTrpBTeZ60ZJ+4uD7eKZgTbxLik6xhy4xIlRkYh9fWpJvDGxKF4bW1BuemJ8w/MrRdeuoZyihp7CJixhcqKzUTUWYa8PyoaCBiTuRaNiS06Kke+25fWxXCFRwuco+3JCryolIG0g3BPHQ3md6R1x1vE7VFl8rlyOt70itbM2bGZr3Lh6Q3RIy+O8bHnP9bSocQ1VxYhLkWVCSXzTjMUxwnjMT9JZG7/4H78jrk/nVcEkPWalF3tONgSvJpi1UU7+7TeviX/91SveVjh/88JR8ZV/9AFvK55//53r4g/liwC8mf1zXvZ0b/3Lj3pb8TBD5cU//Ia3FQ3DjKCq4hrMbcaKeg4mk8+3q2vEdHO0o2hVPhc/Gp72ttJHpnvGZ6QIuSk3pDBeH1+QrfiCyjYhxQw3PilyJuQ8+tPJigX3vuk8ondlnf+DApPchpe8fFFbvnF9UuW5+q/btam8WnrAFiwV2xo7Kl0v5DYxfYpjMadZYR1Z9YwWz9RBklox2owZb0sRfu/OjBLhW9Ls9MMcQNPDiWBIx+KGmsTNEvCDZaTnDpqEpbGliSRxP87xr27PPMpl9fN/rxQSAWzxVwAIAwtnWo5L/Vk3WD2MVxGiOYYlq2fFYhJA2s3U9PaMFhfujuwFdQA6yJED/t6R3EZuKDmbfIZc0NWEWTBne5pVknWcoyFtEO9LUgGOrJuo2SJJx41JvKp6rI95zH1iuEHiAsOBoKJaOmwTRdrvV2rFaAMV4TSYKpNLu5MAzNkcJuRsIsykThegAXhCivE9J7oCH4y08omE8b44sUX1mkGQp0qQPgmYpNwnfZtw2gQVsRrPxeenup5xD/Ff26DesV4KMSwJoFheG8uJ63LMxORnnDaESrJQjCpJz4Sp+I0bk95WMAhFp8nZwP36tWeTNQh+ghq/Tdko04PGsSXPKc1kWoxHvHEDLSUeOLRJL+hvOf2maqmQLIDz4kf3ZsWIbJH75Pe/52S3OBWy+tRBwfUgk4ewDw4UFk+15Xuy16uvjk9k+NIb5QtxYEYS8Od48ZRyvE/3t6ol0QlTsbqXrlBgwlBj08LC2fQ5odJGpsVYLR8UsmkwfXCFE9RdWNsQzfKGmasYdTXudOSUCiES8lkxV1kX8acj88rZcbIrPUtYY5LRSJB7SzZT0pS0b96YUilp/VIEUcnrX7s2kchD/dJT/TsaSxpKZo9Q/JjKAOTMsk263juOdahxLnHUj8jPffr5Y+KStEIwVWlk9BiQ+am6YY7C9Yx7SGNd7a5cU7xwQItuplX1lXlFIup66gwZHEI/uTcn7szYu/rLjV8QND5mRbaPnT/q/WbHn71dqFpH98q5hsGY8du37GN3WBW/+sygMjdflGNuMqXo9dASCQljC6sqNHV9Jq8SNFgs9r58j3mq5Ct3yvM60dGoKvExPKAhRpzMZY0jaGJymqgWL/3W57zfU8VAW1Ps4qUs/1blq6FBmIJeizzEanmH9bQhciu5qUFt+N94sk+1zLb891fuqroyOH9M9zuhk9/+8FPeVjz0pj+WIr47v1Ly67/+ZFg9vMDYzHSUYPb97kee8bbiIaHhP3z/lrdV6GW5rmGZSh3S8vjY0/YTlWkobs0uqx4S8b0t/723JvPKY8psfno8ZorwWlzfUteJjJs1ea35+/TyhvrJ8eTWtlQvOdDRIraboocJ1OKZDnDypYXUZuBcHOqKXSfhzrXbYns92IN6rreQC1momVI4xSvjC6r0g5/Pf/xZ8Zlfsl8sVWfgEPcy1yMkbDD2uZe9rXh+78/fFL/79aveVvnAKjCdVv/gxVPi8x971tuK579JYX/2a294WwUolREW5mAsd/uzH/e24qEBe9cffkPcleNuf2yW+PJRX91UhGhOhKYWDj0yoY+rk4vqXId62kXjULQpPirH9zemFryt9JFaM5WVZ2MJGSfMSrNRmSRSg1qIgDlUTgiPmCR1nScZayXB/70fTVBeA342unsNi6hjxZn1hmzobMFKwUETlCTBNfVdVjX/1ETnyVIKhPt8Pyd7V4shghszFsnqZrwYj8gxYxCYLwjSP9cRcy0oRlUs5sz5NIH5rI+NcXOSxHBMQxwiZoCckUDcuX45QYgDoryqHIOGMWa/b7xPz4hFgqmqaWqK9wkQAkkzKe4Z4x/02vq6UNNpIr8uln3foTyMZeodqbLmdwgkrRiwl3B8NEofk72iTWqhBs8wY23T+5wzTPEwkoY4iDeGHVbh2hZ6P+6XGV4h9Q0xjvniijZidD1jkdj0jE2NDWosQxY/NwjzhtqcmD/XphbVgN1PObyq/JtBJpZe38IWzOa9KpKEEKdlg6QLCduCV5jr2C4bOnpDxmVmTxUGMdegYsxh4GDyV47T0LNPLa2phlYtB6ju6wO1rV/jCzsnlTfb9IwJc5D3m9SKkRYwLlVNt4akwmGy4I3DQUPLykdNM0ZDi0+CQCmY5eVNkn4vMdJ3n+hKlC+ahPraI8pTnJRj7Y3i+aF2tQYHJm7QHEr/C2ERfE9CVDYO948hBY0sIqcB1GU1GSv6nwybnjHsvqWFVK9C9eLJXhXAj+J7378stkIuMi5v8kf9IFJS2jRJvalBq1DR0v/yuQHxx7/5Hu+deP7dt6+r/E9CODQkd2aXVcNSLgj0f/Efvs/bSh+ksA1+7sve1m7woPoXdsUP8MO7czuGCNXV1eKDH3je2wqGhv27N7zYaUpJbc8IyxvxSciYqmHg/vavMwGMQ/QqTOWiGPOX48MsJNZ2oqNJ9UKkftl4ZW1mIJgVvdMIFgFpekFgwgetsMxY0T9Wt+kVkyS0HxSpFmOYc8akta1ZeQyJLbL4DTcYU1Q/0FO+uCLv0tteGmxX+1P+j2TyJJiFqIBMnGLDJjXy31al7vOryix71/Eu8f7T3aqEox/OiVQ8zEjOk59sB4kXsb78TLKsm4PgU5eCGwwmjfthHOwfK0JH+86VmINYtHBCHTSpFmPUakSa3q5WJT6d+sVDqJON8SKSdbPoOXLYg5xVHvqBtkJ+I/msSSqlAd9vehspaIWgGxJ+D8dB7ijhUhwlPxudF/dyy6pheZc00Riz6Sp36A3Bq7IhWnvyJ9u8r9/SEFvk/NLOpy8e29WYcD69AeNvQi5BzqTOzvgEeJtn6aBJtRiXLGZvt7QGp0AhMr2k3Giu0Jo2SRHRE2noFYsFQSJikqhPdTVJQVWp709C0IwIAtiIkt6S3vE9J7vEk70t0mTDxe+XXAHe9wvv0yE9TtpgkrbfVA3qFcEfzgAmC9iI0eZZOmhSLUbGBnEesJraWlHXEGwi6urTunf094D0QIiqWLQQ+UlwulyQLjaysKLGkzibznS3qJkLJFeHjRXNPF4aol/dp5WDy4E5zzKsV1T3MKB36+hoDY1XavDCpjVBwyTVYgQb86KhKbgl5SZpE4ge58guY06I4x3FT3siBqY/H/M8FAUP3+XRnHhNvkgTY6YC5ivzJv2ZRKZGES4Fm7PCxy88HtviyArCrPJnghjjyILzBlIvRhsnTkNz8A0k+0nHKrmZ5loTGmKDfoeMDYjcXC3Zn6daKnwdDgsgdvrju3Piram8qtdzqrNJmXYkw+t1OcyA9ssXstMrwsWj7cohdUKeV5CXO6xXhE4LMWbBRIXqtE6h0mCqDnVET405Ik3Exdl5b+sxCHlHhTH5hA8FtLwvHOtINAueKVRMG6LshoZEat77FaOVj+MHw7Pih3dnva2d7Dp2CQ0LpUUW5N+q5H88wIx7e1oa1HWiVAbTjP7Tp9/5SKQ2kBjOLBSmYiF8tZjpyobK/1xY21LbI9KyYNrTbfmiugEBfho4hOJ/8T2IKkl2EYu5LktTMqiKOo2Q/1pAa2uzOHUy/nqPzC9nwkxNddBf8+Kp3tjea+LufbGUexyIpxxjUHoWmSJMRjX5jeePiV9PUJvlN//nj9WDSnaICQL4X3//vd5WPJ//i7fEf/7B43mDGuqvBsVH8ayak6kxVXnoaRS02XpUivOP/u6L6ncbEHDPZ/9UfR5PM1URmG3P+JoHg2wmriOTfM3ZHIUVvB5PsNaQU7wge7E/ePmi+GcfOue9G89PRubEZ766c9oWIO6gMpxw8sRRcfp0vBXw17cnd92rNJJ6MxWmA+Yg+mlsbVWmGsuJ05KH5UleHsupv3Nz6M02pNkX1OpGwYMYdHPJoEkCvRk9Ql72PjQePMisZBwkROAhJwRCr8n+/M6Y8ru3psVf3Z4W1+RDy+z5JPzsfk68T4rvBTkWxVFEb3Z1ckGJj7EqP7lemPM4vDQcK8t7U+CY39XcTrVdKBSdpFAVEF/1e4TJthmOKJTc1RVvzcwsrWVCiJAJMc6vxCcgt3a0iYXNh6rsRtQ4k5ae9SN4aKi1GVQtO46gnFnKRCZZ717DuBCR0Xgwoz0uKZuGQzc2/NQNCYLAPCRhIAmU13hbmoF4br95fVKVX/zurRn5/RuPxqya48YYGRAL15HjxlIglU9/5juygUjiOKF/xfFkgkkcZl42NzeKdotgP2LMCpkQ44J3o6Mgztfb0+FtRcNYhwe3XNCTXR0PNqX2EybskiiQhP/yg9uq90FQWkgIgAC7Hzy0fhM/DBo4ilUl4QNnHq+Oxdg1zIMKXRaxRcJiaS6z4ScTYgSb3rGvt7DuYFB6mAmxOh7AedmzhAXSbaFXY5Z7ub2pxfCpi8kC/YzF/A8814bxI+IMuoyEHnRMlQwnrjfjeUx3fxLDVxIuqkpiON+H+a7X8SCGS7zYH8fttDRRk1o9B0lmxDhjMW4kT/Xk0W45vqnbtdy0hptLC08ph4n8qqql6U8GiEM7S5jTSF0dnCBpIGnF8P/31s6eCwcOHlpmoDB2xAz1J0VQt/R8f6sSHvsTpO9sKqy7TwqiWdf0S1fHVIjGFpxBJMvflkJkKECSA8uqM0+U+0UyAPu0tDRZ9YwzckydJTIjRmabU8ovjtaudvUgtTYUclBNyFLhATKXG6N3SOrA4XtwVrwyMrdjTHOQM/0R0PtPJVsElRWINeTa+gsE02uSN+sXJKbqBSlIekMTelKcMHp/xoxJFlUFHEk4phC3v8QR8zNJtDg6EH+eJIvYWFNpIjNihOmleAdJa0e7ysjB/PSHQxBnkFlKvZwk3JheEhPyWMzUNH7313DdTzBRY6zzHeAo+u7tQr1T1dv4BAc0UsQTaXyqjetWK1VyYSB4CTqOAVHrUh9JF8f5hbO9gYF/DTP6j0rrJ44sjRU1mRIj06EYT8TR2llwYmB+muILyx9lrUFbGEsRIAdMXg2/492kVbflR/fmvN9Kh6W6k0DNGj2eigrO0zviPEOAGh1bZGXlIBHTMOklu//35fvqpy04w6IatbbuDtljxj+2WfKiajIR9Dd5sq89MIvGhNWpRq7fFpvrGypjRQuY8ZDZm/khTkk1a0C4/hKBfsy6qTyU5rSqIFToYmPvM0EQS9B8SBMV0/TMfszNqN6IceGx9qZHZS84VzMx/eZMXs3aN6FR0uY/VcNPdzfvaLxMGFf+yZVRNUbF+WYuhGpSU1crjp87o2b2R4EQ3xjbnZGVdjLVM8J0Pt5UpeVsk70jrvotozxfXEEis9f1x9iCMEv/UQgrDpt9ygHHHudFNJ1OcdcFYZlZMP7vfqKnVeXKPtXXqtLzEDbToOit8ZBGCRGoqo4QAcdN2PG0dXXEChGy2CtC5sSII8dmjNfW3Sm2q6p3ePN0yx4ED7DpjOGhoOcLAx2avRwPU1SmB5lB++l1Dapep6FRMBMjaISiemz+RiaOjs1uyJP3DxdYB4PSI0/2tqoK42e7W1QlAkpnhAXuyX766cicNIV3xnyDkjaYJtfRE59dREx6oojkizSQOTHCmMXCmNWyJe7q3+l1Y+xDxo0pUIXc5gHwPzSYoP4lx4HPMwPEn4lD3DKo96Ol1+bsfsH5cK5+aDCC0u3CTGjyZLU5y1gZc3Rbng8V34MaH/b3fw/741k1rxerhf30fk4KcW2XN5v7RKaUSVd/rzhi0Svezx3c4kOlkrkxo+a5oS7l5o7jypWbYnZuZ+n5gleV5ICCycUKR1G9GmMqzCwchAiLhyXMDGREypiKMSd70BtGpeftNYwfSSTnXImpRlkHwHHj0OE8wq4L8ymZxsW4ke/XSRYMCbAwdjV2HuzFvmNyqHFrdkkKN3rlaMb3XPfevi5x6uxx791wsjpW1GRWjN3NDVKQwZXFTHK5vLj82nVvy1EuCBuxHuVQm116HKJjGtZ9adXYFEXW1NfXiucvPSUaG+Mb3ssjs2oYk1UyaabC7PKa1diRmeDHhpIX8nVEg3XAQrGvjs6rXo4Eff+YeEnuQwL98PyyctJg5iYRIjBNykaIY3LcmWUhQmZ7RrDtHdfXN1TvuLqarYyMLIJJz8Rnxt9RJqgNPT0d4tlnznpb4TBkePXejGogskxme0agd7TxnNXX14mzZ9JZLY2xK2PYsIQEPyQy6LFaGsF5gyhKFSLm6ZnTdrm2OG2yLkTItBjh7iwlGeJNH1pZm1nh+wUiJLGahT7JKyXBgN/DktZJfCdpgQA8ifAE9flckhWmssRpKUSbSuH0wPelGVwJZF6M3Iy7csxiA+OPvr5kM+H3AryECMqfhoZAmVHPTxN6QmYu+LOH6FERZKUxNNQrBvrtJkmPSiHapEhmgcyLERi8+8v4h4G5yizxg0QlUoeYmXR0/tkTbb5tEwQdlB+aVSgyZWuezi2vZzqu6KcixAh35/JWLSRjkbNnD3b8aFaVC8I0VYnLRSVyQ9K1QtIMQrRJeWNocmv64KsrlJOKuYvL61tSkHbmKhNTnz5/2tvaf+JGeXgjNXH7QlWFjBufuXBGdHbG10GFW9P5inDamFROkyphIG+bl9jf3yWeOnfS29pf4nJUzb9TziMuwXw/c173CoTY2xsfpgJ8BFMWEwayRkWJETBdbFccOnq0Rzz5RHyaVbmJS4/z/z1qfxLWDzLdrhwkESIpb3dm7eefZomKEyPjRgRpG+caGuoTg1KU+wk9GcnXuw5RblPOQ08n0pDJEpT0TR7o7Mp6yTG9gwTrxFaIJKffrLBxokmmM3CiYEmAJ/vsZ7+ToUMe636Cc4bwBJ7VB1JYrKMRNQ+RqgWFpO8qlZQdNe0pC1Ca/9Qp+9jvldG5xCVSskTF9Yya0dyyCnnY8vylcyoxYD+hR8MJwfQier8oIQIzRjBJ2f+wCfH2TL6ihQgVK0a4PrmQ6AaSB8k40rG3JBXi5OKquGfpKc8yFWummrzjRE+iJbXv3h0Xd4YLVc2YT6fjfIz14uYDqmK+R46oXo9Js1GeTsxN9ielDa8p2URxvWMSiFfqmCZjaf/kaT86R5YjII6XtIRlFFxDruUxsqCO9nrvxoPD5urYvDqmSudQiBHec6pXNCaoazoxMSvmxiblw+m94cHMf5wmfp8JDzG1X3RVNA1mJVXj/CBCiin7Q4TsWw7vKOUuGn0Hj7hwHPkFT/odx+4vY7ksTWHWIykVzrO5vlr0HR9UdWxswapBiFl2UCWhos1Ukx8NTyfKYRwY6BZnnjq1a1VkCiD7K6nxCJM76hcikKrm75XpJfgOvxCBCnNm5bViYGk6vxCBntJ/7BAkRGiW30HR51JgGbvuzhYxdPZkIiFSgPjN8cMjRDg0YoTv35r0frODFZEHz5zY9RD5pzw1S8FFTWny547GVR4vpTI5x4GIwlBTsIx0PGVWBwhRQ55sUKNhA59jYvegFGJjS/SCtyZMEn5zPFdWkz0LHCoxwrevj6t4lS0UQcK86hkc8N4pYM6s8M+y8INOzX3i5i7azm0MIu5YwBSfzf7FHA85wBfOnxa9xwasig5rFpUQ5xNZMZVC8Xc9w/xYmqxJy7939HbJXvKkqG8szLF7aLoULBrwh4a5Fbf7ju9OiM0nd+xj8YGkliIhoksXz6lCUkkgc+qq7BGjioNVModSjIBjIOmk1KbWZnHsidOia6BXbD983LvETW4mPmgWRY7bvxQvpnqQY8Rjfn/cv4WpaJv72tzcIM7LcTYhIpuJwSZL65uqR7SZKF6pHFoxAqlVSeNXVdLmpIbnxUvnHk2ApchSUH1VjT9XlmXDw8ZD9EJJVvz1g8ODNSPDoDCzaQKSeket0zCC0vD8sFAtE7dfeP68cnwlhcLDjBHjQi+VzqEJbURxvLNZnOlpK8pRMTOTEyMjk2JxcUl5MXGIaBAcwgjKlmGshufUnLtIr5aT+5fDTMPxghfXPCeqjPuLA2t0+EFDArrODIqir69THJfjwtbW6PVPwhiR1smdmfyh8pqG4cTo0SEfxjO9bYmSA0wmJmdVbDIvRamC/tJWtBEVotRB/3I7LdChTljAVI574DkOjocxa5z52tvTKQaOdovuruCl4eIgeYIUt0qcClUsTowGJGzTQ8atchXFzGxOTEpRTssesxJhHiiLlVKPtlgQIEKMy2Y6bDgxBnC0vUmKsrBUdrEsLCyp3nJqal5sb2f7oaupqVbTnBBhW5t9vNAPPTMmKaapYzdOjCG01NeKU90toqclmVfQz/r6phpXzszOi/n5nVO0yLShBCOBer0KVpQTg5L6ZACpKVTemh9hnk7Giowb66oLa4RgMkfNDOEYSE5QZqrcBa9mXUuz6OnuEN3d7aKurrRMHJw09Ib8dATjxBgDzp3TspdEAKWSzy8r8xVx1j7YDlyh11yA1YQSjgjRT1AuK8Jif396Hjok39M/HjRLPpJ11NzWIl+tahm2cuCcNHY4MVrQ1lAnBdkiOpvK83DC+sqqWFtdUz9Xl5bF5sZjLyez/c1iS+SH+ss3mkzld65zQaFj00trQg88Yawy3NbaJI71d4rGpkZR39Qg6urLd47MuCCWm/U1MPYLJ8YEnJRm6+nu4h0XUWxubEhRroh1KdCVlTUxRqX09cJDPNjeqFLqwjBnhpC6Frb8eW19nRLb1pFq0Sh7wLb2FlFXW3webBjEVRHhpPOUJsKJMSGtDbXKwTMoX3vNA0prSGGKrU2xsUbNnAeqPMdD+b7+yXsbWw/leHBbHJFCZBza2linAvFVVUeUqVkne/ZaKcK9LunIuHRkfkkVFnYWaXKcGItkP0WZBegJEaELVxSPE2OJHHZRTufXxIgUIbMtHKXhxFgmyNyhIl2/5Uq+WQev7FhuRf5MNvvFEY4TY5npaq4XJ7taRLsct1UixAnvzS07Ee4BxaeYOAJhZaTX7s9VZJYJ58S5OSHuDU6MewDBbaqaMy2oEhwanAPnkqRSuyM5Tox7CAnRl+/PZnpmQiWcQ1ZwYtxjstqrVFrvngWcGPcJPd6ivETa4RgrddybZpwY9xE8ka+PzqmaoGmFY+MY3eyK/ceJcZ8hZYxeJ41jMI6JYytH2Q9HcpwYDwjGYszvSwscC8fkODicGA8QKtNdHpn1tg4OvKWHYZWntOPEeMAw1+8gBfnG2LzIlWFxG0fpODGmAASJKPabtyZyagKwIx04MaYERHFNimO/uD61oBYhdaQHJ8YUMSHFQaB9r8FZw4wLR7pwYkwZBNr30pnCdztnTTpxYkwh9Fx7MZZjInCawimOnTgxphQW5TErxJVKYbm1/XcSOexxYkwpJGffnFosS2Gnre0H4sronLflSCtOjCmGPNGb0wveVvFcGZu3XmPRcXA4Maac0dyKqrpWLG9PLrik74zgxJgBMFeLmelB+cTxBRfCyApOjBkBL2jYojVB4LC5M+s8p1nCiTEjIK4kYYlhKcQk4nUcPE6MGWJUjh3J0omDoD51TR3ZwokxY7C02kpE/BFnzfCsy7DJIk6MGYNFTKPMVYToyilmEyfGDEKqXFB+KUJMc30dRzROjBmF3tGcFMzvOG0c2cWttZFhmupqRGdTYU2PeSnGqLGkI/24njHDID4ydHg5IWYfJ0aHIyU4MTocKcGJ0eFICU6MDkdKcGJ0OFKCE6PDkRKcGB2OlODE6HCkBCdGhyMlODE6HCnBidHhSAlOjA5HSnBidDhSghOjw5ESnBgdjpTgxOhwpAQnRocjJTgxOhwpwYnR4UgJTowOR0pwYnQ4UoITo8OREpwYHY6U4MTocKQEJ0aHIxUI8f8BRyvHp6Dxgh8AAAAASUVORK5CYII=;clipPath=inset(2.63% 6.83% 9.65% 6.39% round 49%);" vertex="1" parent="1">
          <mxGeometry x="587.08" y="180" width="245.66" height="249.4" as="geometry" />
        </mxCell>
        <mxCell id="U2jJi5pHd13_bOi9mq0v-2" value="" style="html=1;shadow=0;dashed=0;align=center;verticalAlign=middle;shape=mxgraph.arrows2.jumpInArrow;dy=9.77;dx=46.24;arrowHead=50.7;direction=west;rotation=-180;fillColor=#FFFFFF;strokeColor=#000000;strokeWidth=7;" vertex="1" parent="1">
          <mxGeometry x="448.16" y="299.4" width="158.92" height="119.32" as="geometry" />
        </mxCell>
        <mxCell id="U2jJi5pHd13_bOi9mq0v-1" value="" style="shape=image;verticalLabelPosition=bottom;labelBackgroundColor=default;verticalAlign=top;aspect=fixed;imageAspect=0;image=https://upload.wikimedia.org/wikipedia/commons/e/ef/EpiInfoIcon.png;" vertex="1" parent="1">
          <mxGeometry x="336" y="399.4" width="192" height="192" as="geometry" />
        </mxCell>
      </root>
    </mxGraphModel>
  </diagram>
</mxfile>
